<?xml version="1.0" encoding="UTF-8"?>
<svg version="1.1" xmlns="http://www.w3.org/2000/svg" width="500" height="500">
<path d="M0 0 C1.35568336 0.00333092 1.35568336 0.00333092 2.73875427 0.00672913 C3.77407288 0.00684998 4.80939148 0.00697083 5.87608337 0.00709534 C7.52018188 0.01476929 7.52018188 0.01476929 9.19749451 0.02259827 C10.19905579 0.02360535 11.20061707 0.02461243 12.23252869 0.02565002 C15.99039345 0.03090022 19.74824195 0.04486134 23.50608826 0.05775452 C31.90046326 0.07837952 40.29483826 0.09900452 48.94358826 0.12025452 C49.27358826 24.54025452 49.60358826 48.96025452 49.94358826 74.12025452 C52.25358826 71.48025452 54.56358826 68.84025452 56.94358826 66.12025452 C70.64916826 55.56954387 88.67393882 50.49104231 105.94358826 52.12025452 C123.53965769 54.73769373 137.11989873 60.5274251 148.87718201 74.30384827 C159.74968156 89.12251023 163.12446955 106.72848808 163.05711365 124.75892639 C163.05725967 125.79397308 163.0574057 126.82901978 163.05755615 127.89543152 C163.05686329 131.29331101 163.04910036 134.69113468 163.04124451 138.08900452 C163.0393781 140.45411652 163.03795525 142.8192289 163.03695679 145.18434143 C163.03314915 151.39195331 163.02333389 157.59954158 163.01225281 163.80714417 C163.00019663 171.26454684 162.9956281 178.72195743 162.9897995 186.17936707 C162.98012116 197.49301261 162.96095231 208.8066064 162.94358826 220.12025452 C146.11358826 220.12025452 129.28358826 220.12025452 111.94358826 220.12025452 C111.89460388 213.78580139 111.84561951 207.45134827 111.79515076 200.92494202 C111.7597223 196.88716662 111.72373828 192.8494112 111.68577576 188.81166077 C111.62570904 182.41732296 111.56758472 176.02301275 111.52171326 169.6285553 C111.48455836 164.46724536 111.43812089 159.30609139 111.38552475 154.14491653 C111.36713988 152.1860086 111.35197477 150.22706745 111.34024429 148.26810837 C111.84963353 127.73236181 111.84963353 127.73236181 105.06468201 108.88978577 C103.94358826 107.12025452 103.94358826 107.12025452 102.94358826 104.12025452 C101.22839079 103.09374079 101.22839079 103.09374079 98.94358826 102.12025452 C97.19433368 101.10324604 95.4581483 100.06652363 93.72483826 99.02259827 C86.94408245 95.58761013 77.17650799 96.10479529 69.94749451 97.83900452 C60.54509857 101.38815854 55.93049 106.67483497 51.75608826 115.68275452 C49.79146902 121.57661223 49.77861522 127.47192819 49.73826599 133.61390686 C49.72836639 134.55112579 49.7184668 135.48834473 49.70826721 136.45396423 C49.67679248 139.53801486 49.65195043 142.62208086 49.62718201 145.70619202 C49.60660036 147.8499643 49.58560357 149.99373263 49.56420898 152.13749695 C49.50911336 157.76969701 49.45964906 163.40193294 49.41136169 169.03419495 C49.35220453 175.79743355 49.28604558 182.56060686 49.22106171 189.3237915 C49.12320966 199.58923917 49.03424584 209.85472944 48.94358826 220.12025452 C31.78358826 220.12025452 14.62358826 220.12025452 -3.05641174 220.12025452 C-3.07895566 191.5834708 -3.0973891 163.04669426 -3.10822392 134.50990391 C-3.11338766 121.26079554 -3.12043184 108.01169308 -3.1318512 94.7625885 C-3.14179565 83.21924569 -3.1482646 71.67590717 -3.15050024 60.13256019 C-3.15180775 54.01633197 -3.15489617 47.90011599 -3.1621418 41.78389168 C-3.16889825 36.0343493 -3.17102947 30.28482429 -3.16951942 24.53527832 C-3.16979592 22.41840966 -3.17180326 20.30154046 -3.17561722 18.18467522 C-3.18054861 15.30796035 -3.17941209 12.43131216 -3.17666626 9.55459595 C-3.1795791 8.70539111 -3.18249194 7.85618628 -3.18549305 6.98124796 C-3.16780189 0.18524621 -3.16780189 0.18524621 0 0 Z " fill="#FFFFFF" transform="translate(148.05641174316406,27.879745483398438)"/>
<path d="M0 0 C16.83 0 33.66 0 51 0 C51.02578125 6.93515625 51.0515625 13.8703125 51.078125 21.015625 C51.10331173 25.42711954 51.12965881 29.83854676 51.16015625 34.25 C51.20838084 41.24153845 51.2524671 48.23292093 51.27099609 55.22460938 C51.2862161 60.86581608 51.3207565 66.50661289 51.36830902 72.14763641 C51.38306779 74.29240085 51.39103783 76.43722383 51.39188385 78.58203888 C51.08874811 99.00446197 51.08874811 99.00446197 60.83984375 116.30859375 C68.19430854 122.06715298 76.32554029 123.86326461 85.53515625 123.4765625 C94.21019738 122.28337759 101.24271218 119.10396656 106.66796875 112.12109375 C110.12950477 106.60902906 112.09981627 100.30618721 112.15821838 93.79852295 C112.1680072 92.96843719 112.17779602 92.13835144 112.18788147 91.28311157 C112.19363693 90.3811203 112.1993924 89.47912903 112.20532227 88.54980469 C112.21522186 87.59337067 112.22512146 86.63693665 112.23532104 85.65151978 C112.2668965 82.49166332 112.29167792 79.33179184 112.31640625 76.171875 C112.33697918 73.98040375 112.35797575 71.78893644 112.37937927 69.59747314 C112.43456485 63.8304361 112.48398967 58.06336345 112.53222656 52.29626465 C112.59130097 45.37622179 112.65750965 38.45624397 112.72252655 31.53625488 C112.82049186 21.02420966 112.90937825 10.51212265 113 0 C130.16 0 147.32 0 165 0 C165 72.27 165 144.54 165 219 C147.84 219 130.68 219 113 219 C112.505 183.36 112.505 183.36 112 147 C109.69 149.31 107.38 151.62 105 154 C88.20148286 166.40343341 69.06364313 169.19204343 48.65820312 166.71582031 C32.92012095 163.95980874 20.08794206 154.9600078 10.8984375 142.046875 C2.67125349 128.67332482 -0.3400488 114.19601455 -0.22705078 98.65356445 C-0.22734283 97.5790654 -0.22763489 96.50456635 -0.22793579 95.39750671 C-0.22655508 91.88601279 -0.21105361 88.37473759 -0.1953125 84.86328125 C-0.19157789 82.41277685 -0.18873304 79.96227096 -0.18673706 77.51176453 C-0.17913589 71.09208992 -0.15951783 64.6725072 -0.1373291 58.25286865 C-0.11317819 50.53426258 -0.10407294 42.81562562 -0.09242249 35.09699249 C-0.07309125 23.39793128 -0.03474398 11.69907129 0 0 Z " fill="#FFFFFF" transform="translate(202,238)"/>
<path d="M0 0 C93.53772096 0 93.53772096 0 111.75 16.0625 C120.51200102 25.39455892 124.40648719 38.33845168 124.3125 50.875 C124.30686035 51.66656494 124.3012207 52.45812988 124.29541016 53.27368164 C124.04474249 65.36405339 119.62488125 76.43005019 111.25 85.3125 C105.01800819 91.12743691 97.78949404 94.74881583 90 98 C90.40089844 98.6712793 90.80179687 99.34255859 91.21484375 100.03417969 C101.14602014 116.68184895 110.88421968 133.42717193 120.44458008 150.29052734 C121.4966208 152.12313572 122.58371667 153.9359898 123.7019043 155.72900391 C125 158 125 158 125 160 C110.15 160 95.3 160 80 160 C77.89625 156.08125 75.7925 152.1625 73.625 148.125 C67.08381224 135.96513864 60.52990467 123.8088984 53.609375 111.859375 C53.04355713 110.88049316 53.04355713 110.88049316 52.46630859 109.88183594 C51.44850598 108.1267526 50.42373931 106.37571297 49.3984375 104.625 C48 102 48 102 48 100 C45.03 100 42.06 100 39 100 C39 119.8 39 139.6 39 160 C26.13 160 13.26 160 0 160 C0 107.2 0 54.4 0 0 Z M39 33 C39 45.87 39 58.74 39 72 C43.62 72.061875 48.24 72.12375 53 72.1875 C54.44117188 72.21481201 55.88234375 72.24212402 57.3671875 72.27026367 C65.71587972 72.3243024 72.02957152 72.08811104 78.8125 66.8125 C83.03115268 61.38851798 84.73942316 55.90128284 84 49 C82.82148002 43.55332657 80.64640707 39.64738052 76.1418457 36.28442383 C68.80710199 31.88591856 59.10554337 32.75156916 50.875 32.875 C44.996875 32.936875 44.996875 32.936875 39 33 Z " fill="#FFFFFF" transform="translate(14,67)"/>
<path d="M0 0 C9.12066253 8.81437162 11.16793386 19.12282011 13.0625 31.4375 C-0.1375 31.4375 -13.3375 31.4375 -26.9375 31.4375 C-27.9275 28.7975 -28.9175 26.1575 -29.9375 23.4375 C-32.91436273 19.78844246 -35.83045351 17.67929222 -40.55859375 17.13671875 C-47.81571375 16.95442648 -47.81571375 16.95442648 -53.9375 20.4375 C-56.05448788 22.83675293 -56.94105096 24.42902642 -56.9296875 27.65625 C-56.58306079 31.10015411 -56.03449414 34.14651757 -54.9375 37.4375 C-52.75612203 38.46200239 -52.75612203 38.46200239 -49.9375 39.4375 C-48.80441406 40.03175781 -47.67132813 40.62601562 -46.50390625 41.23828125 C-41.17446655 43.93063523 -35.57455376 45.75119234 -29.9375 47.6875 C3.61071326 59.57685949 3.61071326 59.57685949 11.625 74.8125 C15.48537591 84.54736099 15.84911108 97.46183906 12.5625 107.4375 C6.4936198 121.10309037 -3.20152405 129.13753271 -16.95703125 134.4375 C-34.6141053 140.36176076 -55.63633217 138.86836586 -72.3125 130.8125 C-83.69743815 124.93653443 -91.73085018 116.30530645 -95.74609375 103.94921875 C-96.81503913 99.56285667 -96.9375 96.07188008 -96.9375 91.4375 C-84.0675 91.4375 -71.1975 91.4375 -57.9375 91.4375 C-56.6175 94.7375 -55.2975 98.0375 -53.9375 101.4375 C-48.5413096 106.70520968 -44.46643665 106.72503911 -37.1484375 106.65234375 C-33.35153238 106.39829292 -30.97699798 105.75711688 -27.9375 103.4375 C-25.07956726 100.10324513 -24.24752432 96.90101932 -24.48828125 92.484375 C-25.40351924 88.31407321 -27.5824584 85.97791819 -30.9375 83.4375 C-38.14043467 79.42533902 -46.02703047 77.05482091 -53.83642578 74.52514648 C-84.64629623 64.54130283 -84.64629623 64.54130283 -92.8125 49.625 C-97.88412718 38.3851776 -98.11172879 26.30713354 -94.25 14.625 C-89.87194918 3.85186781 -82.14101524 -3.17126285 -71.8125 -8.3125 C-48.6444435 -18.06239044 -19.93115356 -15.71559655 0 0 Z " fill="#FFFFFF" transform="translate(476.9375,259.5625)"/>
<path d="M0 0 C13.2 0 26.4 0 40 0 C40 41.91 40 83.82 40 127 C26.8 127 13.6 127 0 127 C0 85.09 0 43.18 0 0 Z " fill="#FFFFFF" transform="translate(150,261)"/>
<path d="M0 0 C12.87 0 25.74 0 39 0 C39 41.91 39 83.82 39 127 C26.13 127 13.26 127 0 127 C0 85.09 0 43.18 0 0 Z " fill="#FFFFFF" transform="translate(319,100)"/>
<path d="M0 0 C6.43308454 3.85985072 11.00063577 7.37724388 13.125 14.875 C14.02447384 22.72956031 12.62153278 27.89904039 8.4375 34.5625 C3.51772024 39.48227976 -2.65194279 41.65272019 -9.5 42.125 C-15.75772164 42.01992632 -22.17894198 40.47798782 -27.25 36.6875 C-31.93029715 31.67289591 -34.08743011 27.29584859 -34.375 20.375 C-34.06755647 13.20462347 -31.76829222 8.34776335 -26.5 3.5 C-19.68451328 -2.2818584 -8.2328618 -3.15499693 0 0 Z " fill="#FFFFFF" transform="translate(348.875,46.125)"/>
<path d="M0 0 C5.51326891 4.28136633 7.82614599 8.70153528 8.7578125 15.59375 C9.17790471 21.84262161 7.37810681 26.56597092 3.66796875 31.57421875 C-1.66561028 37.21319699 -7.62014537 38.89564169 -15.2421875 39.21875 C-22.9361371 38.89259344 -28.56138151 37.0823854 -34.1875 31.75 C-38.63868108 26.20155103 -39.02502406 20.80125373 -38.6953125 13.83984375 C-37.82255365 7.58757993 -35.10444355 3.55300966 -30.00390625 -0.33984375 C-20.37886649 -6.16608733 -9.4756236 -5.94289982 0 0 Z " fill="#FFFFFF" transform="translate(185.2421875,404.40625)"/>
<path d="M0 0 C1.32661812 0.95995207 2.64006937 1.93845177 3.9375 2.9375 C5.04931641 3.70900391 5.04931641 3.70900391 6.18359375 4.49609375 C6.76238281 4.97175781 7.34117187 5.44742188 7.9375 5.9375 C7.9375 6.5975 7.9375 7.2575 7.9375 7.9375 C8.5975 7.9375 9.2575 7.9375 9.9375 7.9375 C10.58584654 9.207053 11.23107815 10.47819706 11.875 11.75 C12.41447266 12.81154297 12.41447266 12.81154297 12.96484375 13.89453125 C14.8583626 17.87168129 15.0724072 21.01087658 15.0625 25.375 C15.06636719 27.07462891 15.06636719 27.07462891 15.0703125 28.80859375 C14.96075193 31.38971183 14.69614877 33.48694405 13.9375 35.9375 C14.72125 36.22625 15.505 36.515 16.3125 36.8125 C18.9375 37.9375 18.9375 37.9375 20.9375 39.9375 C21.375 42.375 21.375 42.375 20.9375 44.9375 C16.94861136 47.74506393 12.44264617 49.64911559 8 51.625 C7.30970703 51.94533203 6.61941406 52.26566406 5.90820312 52.59570312 C1.79290101 54.42515971 -1.46696124 55.51964723 -6.0625 54.9375 C-8.41480352 52.58519648 -8.31812003 52.13046706 -8.328125 48.9453125 C-8.33070313 48.15769531 -8.33328125 47.37007812 -8.3359375 46.55859375 C-8.32820313 45.73488281 -8.32046875 44.91117188 -8.3125 44.0625 C-8.32410156 42.83853516 -8.32410156 42.83853516 -8.3359375 41.58984375 C-8.33335937 40.79964844 -8.33078125 40.00945312 -8.328125 39.1953125 C-8.32586914 38.4748877 -8.32361328 37.75446289 -8.32128906 37.01220703 C-8.02559477 34.6416315 -7.23420679 33.00340407 -6.0625 30.9375 C-3.72955225 30.89508277 -1.39547433 30.89657063 0.9375 30.9375 C1.2675 31.2675 1.5975 31.5975 1.9375 31.9375 C3.16559466 25.54548924 3.17528442 20.7048035 -0.0625 14.9375 C-5.51043877 7.8872263 -14.47812074 5.08976567 -23.0625 3.9375 C-28.98344494 3.50688582 -33.43387049 4.01864903 -39.0625 5.9375 C-42.4375 5.5625 -42.4375 5.5625 -45.0625 4.9375 C-45.3925 2.6275 -45.7225 0.3175 -46.0625 -2.0625 C-32.91699971 -11.32410248 -13.02796185 -8.48086478 0 0 Z M-43.0625 -1.0625 C-42.7325 0.2575 -42.4025 1.5775 -42.0625 2.9375 C-41.010625 2.6075 -39.95875 2.2775 -38.875 1.9375 C-27.02575472 -0.97247366 -14.54844199 0.96374631 -3.84375 6.7109375 C-0.60161657 8.9434592 1.67373123 11.7498879 3.9375 14.9375 C4.865625 16.236875 4.865625 16.236875 5.8125 17.5625 C7.60133957 22.9290187 7.16204601 28.33216633 6.9375 33.9375 C6.2775 33.9375 5.6175 33.9375 4.9375 33.9375 C4.9375 34.5975 4.9375 35.2575 4.9375 35.9375 C6.5875 36.2675 8.2375 36.5975 9.9375 36.9375 C12.918405 29.85785063 12.92794075 22.9486355 10.375 15.75 C6.03000692 6.14290458 -1.56233527 1.85522274 -11.0625 -2.0625 C-21.06082564 -5.69667401 -33.5017576 -5.74531261 -43.0625 -1.0625 Z M-4.0625 32.9375 C-5.07176479 37.09376368 -5.16489579 40.98115094 -5.125 45.25 C-5.11597656 46.50425781 -5.10695313 47.75851563 -5.09765625 49.05078125 C-5.08605469 50.00339844 -5.07445312 50.95601562 -5.0625 51.9375 C-0.80627521 51.38043528 2.57974458 50.36790744 6.4375 48.5 C10.22006394 46.71450597 13.91823248 45.13241737 17.9375 43.9375 C17.6075 42.6175 17.2775 41.2975 16.9375 39.9375 C10.75366764 41.18011407 4.893032 42.85779041 -1.0625 44.9375 C-0.7325 41.3075 -0.4025 37.6775 -0.0625 33.9375 C-1.3825 33.6075 -2.7025 33.2775 -4.0625 32.9375 Z M2.9375 37.9375 C2.9375 38.9275 2.9375 39.9175 2.9375 40.9375 C3.9275 40.6075 4.9175 40.2775 5.9375 39.9375 C4.9475 39.2775 3.9575 38.6175 2.9375 37.9375 Z " fill="#D9D9D9" transform="translate(432.0625,159.0625)"/>
<path d="M0 0 C3.28506227 3.58196294 4.27734375 7.00655206 4.27734375 11.7734375 C3.08559237 15.90951581 1.8587801 18.20653706 -1.22265625 21.2109375 C-6.12636257 23.40009211 -10.43365302 23.56718093 -15.72265625 22.7734375 C-19.6334155 20.78375297 -21.29954723 19.40810104 -23.72265625 15.7734375 C-25.1342643 10.12700532 -24.58801491 6.83557113 -21.72265625 1.7734375 C-15.88185314 -4.06736561 -6.91876042 -4.92628293 0 0 Z " fill="#FFFFFF" transform="translate(126.72265625,261.2265625)"/>
<path d="" fill="#D9D9D9" transform="translate(0,0)"/>
</svg>
